<svg xmlns="http://www.w3.org/2000/svg" width="900" height="1100" viewBox="0 0 900 1100"><defs><linearGradient id="bg" x1="0" y1="0" x2="1" y2="1"><stop offset="0" stop-color="#d8a982"/><stop offset="1" stop-color="#c08552"/></linearGradient><radialGradient id="gl" cx="0.78" cy="0.18" r="0.9"><stop offset="0" stop-color="#f3e3d2" stop-opacity="0.5"/><stop offset="1" stop-color="#f3e3d2" stop-opacity="0"/></radialGradient></defs><rect width="900" height="1100" fill="url(#bg)"/><rect width="900" height="1100" fill="url(#gl)"/><rect x="252" y="308" width="396" height="88" rx="8" fill="#ffffff" opacity=".5"/><rect x="252" y="440" width="396" height="88" rx="8" fill="#ffffff" opacity=".5"/><rect x="252" y="572" width="396" height="88" rx="8" fill="#ffffff" opacity=".5"/><g opacity="0.12" stroke="#ffffff" stroke-width="2" fill="none"><path d="M0 0 V 1100"/><path d="M1600 0 V 1100"/><path d="M3200 0 V 1100"/><path d="M4800 0 V 1100"/><path d="M6400 0 V 1100"/><path d="M8000 0 V 1100"/><path d="M9600 0 V 1100"/><path d="M11200 0 V 1100"/><path d="M12800 0 V 1100"/><path d="M14400 0 V 1100"/><path d="M16000 0 V 1100"/><path d="M17600 0 V 1100"/><path d="M19200 0 V 1100"/><path d="M20800 0 V 1100"/><path d="M22400 0 V 1100"/><path d="M24000 0 V 1100"/><path d="M25600 0 V 1100"/><path d="M27200 0 V 1100"/><path d="M28800 0 V 1100"/><path d="M30400 0 V 1100"/><path d="M32000 0 V 1100"/><path d="M33600 0 V 1100"/><path d="M35200 0 V 1100"/></g><text x="54" y="1074" font-family="Georgia, serif" font-size="77" font-style="italic" fill="#ffffff" opacity="0.92">Towels</text></svg>