<svg xmlns="http://www.w3.org/2000/svg" width="900" height="1100" viewBox="0 0 900 1100"><defs><linearGradient id="bg" x1="0" y1="0" x2="1" y2="1"><stop offset="0" stop-color="#c7cdb4"/><stop offset="1" stop-color="#8a9a7b"/></linearGradient><radialGradient id="gl" cx="0.78" cy="0.18" r="0.9"><stop offset="0" stop-color="#eef0e3" stop-opacity="0.5"/><stop offset="1" stop-color="#eef0e3" stop-opacity="0"/></radialGradient></defs><rect width="900" height="1100" fill="url(#bg)"/><rect width="900" height="1100" fill="url(#gl)"/><path d="M0 0 Q 450 40 900 0" stroke="#ffffff" stroke-opacity=".25" stroke-width="3" fill="none"/><path d="M0 660 Q 450 700 900 660" stroke="#ffffff" stroke-opacity=".25" stroke-width="3" fill="none"/><path d="M0 1320 Q 450 1360 900 1320" stroke="#ffffff" stroke-opacity=".25" stroke-width="3" fill="none"/><path d="M0 1980 Q 450 2020 900 1980" stroke="#ffffff" stroke-opacity=".25" stroke-width="3" fill="none"/><path d="M0 2640 Q 450 2680 900 2640" stroke="#ffffff" stroke-opacity=".25" stroke-width="3" fill="none"/><path d="M0 3300 Q 450 3340 900 3300" stroke="#ffffff" stroke-opacity=".25" stroke-width="3" fill="none"/><path d="M0 3960 Q 450 4000 900 3960" stroke="#ffffff" stroke-opacity=".25" stroke-width="3" fill="none"/><path d="M0 4620 Q 450 4660 900 4620" stroke="#ffffff" stroke-opacity=".25" stroke-width="3" fill="none"/><path d="M0 5280 Q 450 5320 900 5280" stroke="#ffffff" stroke-opacity=".25" stroke-width="3" fill="none"/><path d="M0 5940 Q 450 5980 900 5940" stroke="#ffffff" stroke-opacity=".25" stroke-width="3" fill="none"/><path d="M0 6600 Q 450 6640 900 6600" stroke="#ffffff" stroke-opacity=".25" stroke-width="3" fill="none"/><path d="M0 7260 Q 450 7300 900 7260" stroke="#ffffff" stroke-opacity=".25" stroke-width="3" fill="none"/><path d="M0 7920 Q 450 7960 900 7920" stroke="#ffffff" stroke-opacity=".25" stroke-width="3" fill="none"/><path d="M0 8580 Q 450 8620 900 8580" stroke="#ffffff" stroke-opacity=".25" stroke-width="3" fill="none"/><path d="M0 9240 Q 450 9280 900 9240" stroke="#ffffff" stroke-opacity=".25" stroke-width="3" fill="none"/><path d="M0 9900 Q 450 9940 900 9900" stroke="#ffffff" stroke-opacity=".25" stroke-width="3" fill="none"/><path d="M0 10560 Q 450 10600 900 10560" stroke="#ffffff" stroke-opacity=".25" stroke-width="3" fill="none"/><path d="M0 11220 Q 450 11260 900 11220" stroke="#ffffff" stroke-opacity=".25" stroke-width="3" fill="none"/><path d="M0 11880 Q 450 11920 900 11880" stroke="#ffffff" stroke-opacity=".25" stroke-width="3" fill="none"/><path d="M0 12540 Q 450 12580 900 12540" stroke="#ffffff" stroke-opacity=".25" stroke-width="3" fill="none"/><path d="M0 13200 Q 450 13240 900 13200" stroke="#ffffff" stroke-opacity=".25" stroke-width="3" fill="none"/><path d="M0 13860 Q 450 13900 900 13860" stroke="#ffffff" stroke-opacity=".25" stroke-width="3" fill="none"/><path d="M0 14520 Q 450 14560 900 14520" stroke="#ffffff" stroke-opacity=".25" stroke-width="3" fill="none"/><path d="M0 15180 Q 450 15220 900 15180" stroke="#ffffff" stroke-opacity=".25" stroke-width="3" fill="none"/><path d="M0 15840 Q 450 15880 900 15840" stroke="#ffffff" stroke-opacity=".25" stroke-width="3" fill="none"/><path d="M0 16500 Q 450 16540 900 16500" stroke="#ffffff" stroke-opacity=".25" stroke-width="3" fill="none"/><path d="M0 17160 Q 450 17200 900 17160" stroke="#ffffff" stroke-opacity=".25" stroke-width="3" fill="none"/><path d="M0 17820 Q 450 17860 900 17820" stroke="#ffffff" stroke-opacity=".25" stroke-width="3" fill="none"/><path d="M0 18480 Q 450 18520 900 18480" stroke="#ffffff" stroke-opacity=".25" stroke-width="3" fill="none"/><path d="M0 19140 Q 450 19180 900 19140" stroke="#ffffff" stroke-opacity=".25" stroke-width="3" fill="none"/><path d="M0 19800 Q 450 19840 900 19800" stroke="#ffffff" stroke-opacity=".25" stroke-width="3" fill="none"/><path d="M0 20460 Q 450 20500 900 20460" stroke="#ffffff" stroke-opacity=".25" stroke-width="3" fill="none"/><path d="M0 21120 Q 450 21160 900 21120" stroke="#ffffff" stroke-opacity=".25" stroke-width="3" fill="none"/><path d="M0 21780 Q 450 21820 900 21780" stroke="#ffffff" stroke-opacity=".25" stroke-width="3" fill="none"/><path d="M0 22440 Q 450 22480 900 22440" stroke="#ffffff" stroke-opacity=".25" stroke-width="3" fill="none"/><path d="M0 23100 Q 450 23140 900 23100" stroke="#ffffff" stroke-opacity=".25" stroke-width="3" fill="none"/><path d="M0 23760 Q 450 23800 900 23760" stroke="#ffffff" stroke-opacity=".25" stroke-width="3" fill="none"/><g opacity="0.12" stroke="#ffffff" stroke-width="2" fill="none"><path d="M0 0 V 1100"/><path d="M1600 0 V 1100"/><path d="M3200 0 V 1100"/><path d="M4800 0 V 1100"/><path d="M6400 0 V 1100"/><path d="M8000 0 V 1100"/><path d="M9600 0 V 1100"/><path d="M11200 0 V 1100"/><path d="M12800 0 V 1100"/><path d="M14400 0 V 1100"/><path d="M16000 0 V 1100"/><path d="M17600 0 V 1100"/><path d="M19200 0 V 1100"/><path d="M20800 0 V 1100"/><path d="M22400 0 V 1100"/><path d="M24000 0 V 1100"/><path d="M25600 0 V 1100"/><path d="M27200 0 V 1100"/><path d="M28800 0 V 1100"/><path d="M30400 0 V 1100"/><path d="M32000 0 V 1100"/><path d="M33600 0 V 1100"/><path d="M35200 0 V 1100"/></g><text x="54" y="1074" font-family="Georgia, serif" font-size="77" font-style="italic" fill="#ffffff" opacity="0.92">Linen</text></svg>