<svg xmlns="http://www.w3.org/2000/svg" width="1000" height="750" viewBox="0 0 1000 750"><defs><linearGradient id="bg" x1="0" y1="0" x2="1" y2="1"><stop offset="0" stop-color="#c7cdb4"/><stop offset="1" stop-color="#8a9a7b"/></linearGradient><radialGradient id="gl" cx="0.78" cy="0.18" r="0.9"><stop offset="0" stop-color="#eef0e3" stop-opacity="0.5"/><stop offset="1" stop-color="#eef0e3" stop-opacity="0"/></radialGradient></defs><rect width="1000" height="750" fill="url(#bg)"/><rect width="1000" height="750" fill="url(#gl)"/><path d="M0 0 Q 500 40 1000 0" stroke="#ffffff" stroke-opacity=".25" stroke-width="3" fill="none"/><path d="M0 660 Q 500 700 1000 660" stroke="#ffffff" stroke-opacity=".25" stroke-width="3" fill="none"/><path d="M0 1320 Q 500 1360 1000 1320" stroke="#ffffff" stroke-opacity=".25" stroke-width="3" fill="none"/><path d="M0 1980 Q 500 2020 1000 1980" stroke="#ffffff" stroke-opacity=".25" stroke-width="3" fill="none"/><path d="M0 2640 Q 500 2680 1000 2640" stroke="#ffffff" stroke-opacity=".25" stroke-width="3" fill="none"/><path d="M0 3300 Q 500 3340 1000 3300" stroke="#ffffff" stroke-opacity=".25" stroke-width="3" fill="none"/><path d="M0 3960 Q 500 4000 1000 3960" stroke="#ffffff" stroke-opacity=".25" stroke-width="3" fill="none"/><path d="M0 4620 Q 500 4660 1000 4620" stroke="#ffffff" stroke-opacity=".25" stroke-width="3" fill="none"/><path d="M0 5280 Q 500 5320 1000 5280" stroke="#ffffff" stroke-opacity=".25" stroke-width="3" fill="none"/><path d="M0 5940 Q 500 5980 1000 5940" stroke="#ffffff" stroke-opacity=".25" stroke-width="3" fill="none"/><path d="M0 6600 Q 500 6640 1000 6600" stroke="#ffffff" stroke-opacity=".25" stroke-width="3" fill="none"/><path d="M0 7260 Q 500 7300 1000 7260" stroke="#ffffff" stroke-opacity=".25" stroke-width="3" fill="none"/><path d="M0 7920 Q 500 7960 1000 7920" stroke="#ffffff" stroke-opacity=".25" stroke-width="3" fill="none"/><path d="M0 8580 Q 500 8620 1000 8580" stroke="#ffffff" stroke-opacity=".25" stroke-width="3" fill="none"/><path d="M0 9240 Q 500 9280 1000 9240" stroke="#ffffff" stroke-opacity=".25" stroke-width="3" fill="none"/><path d="M0 9900 Q 500 9940 1000 9900" stroke="#ffffff" stroke-opacity=".25" stroke-width="3" fill="none"/><path d="M0 10560 Q 500 10600 1000 10560" stroke="#ffffff" stroke-opacity=".25" stroke-width="3" fill="none"/><path d="M0 11220 Q 500 11260 1000 11220" stroke="#ffffff" stroke-opacity=".25" stroke-width="3" fill="none"/><path d="M0 11880 Q 500 11920 1000 11880" stroke="#ffffff" stroke-opacity=".25" stroke-width="3" fill="none"/><path d="M0 12540 Q 500 12580 1000 12540" stroke="#ffffff" stroke-opacity=".25" stroke-width="3" fill="none"/><path d="M0 13200 Q 500 13240 1000 13200" stroke="#ffffff" stroke-opacity=".25" stroke-width="3" fill="none"/><path d="M0 13860 Q 500 13900 1000 13860" stroke="#ffffff" stroke-opacity=".25" stroke-width="3" fill="none"/><path d="M0 14520 Q 500 14560 1000 14520" stroke="#ffffff" stroke-opacity=".25" stroke-width="3" fill="none"/><path d="M0 15180 Q 500 15220 1000 15180" stroke="#ffffff" stroke-opacity=".25" stroke-width="3" fill="none"/><path d="M0 15840 Q 500 15880 1000 15840" stroke="#ffffff" stroke-opacity=".25" stroke-width="3" fill="none"/><g opacity="0.12" stroke="#ffffff" stroke-width="2" fill="none"><path d="M0 0 V 750"/><path d="M1600 0 V 750"/><path d="M3200 0 V 750"/><path d="M4800 0 V 750"/><path d="M6400 0 V 750"/><path d="M8000 0 V 750"/><path d="M9600 0 V 750"/><path d="M11200 0 V 750"/><path d="M12800 0 V 750"/><path d="M14400 0 V 750"/><path d="M16000 0 V 750"/><path d="M17600 0 V 750"/><path d="M19200 0 V 750"/><path d="M20800 0 V 750"/><path d="M22400 0 V 750"/><path d="M24000 0 V 750"/><path d="M25600 0 V 750"/><path d="M27200 0 V 750"/><path d="M28800 0 V 750"/><path d="M30400 0 V 750"/><path d="M32000 0 V 750"/><path d="M33600 0 V 750"/><path d="M35200 0 V 750"/><path d="M36800 0 V 750"/><path d="M38400 0 V 750"/></g><text x="60" y="724" font-family="Georgia, serif" font-size="52" font-style="italic" fill="#ffffff" opacity="0.92">Linen</text></svg>